<svg width="861" height="309" viewBox="0 0 861 309" fill="none" xmlns="http://www.w3.org/2000/svg">
<rect width="860" height="307.045" transform="translate(1 1)" fill="white"/>
<rect x="15.3181" y="83.5" width="169.773" height="33.4091" rx="16.7045" fill="#F0EBFF"/>
<path d="M28.9076 38.7944V37.4063H32.2136V27.817L29.0902 28.4198V27.2508L32.725 26.0088H33.7478V37.4063H37.2365V38.7944H28.9076Z" fill="#14234B"/>
<path d="M99.0556 39.0136C98.0936 39.0136 97.2412 38.7457 96.4984 38.2099C95.7678 37.6742 95.1955 36.9131 94.7815 35.9268C94.3797 34.9405 94.1788 33.7654 94.1788 32.4016C94.1788 31.0378 94.3797 29.8627 94.7815 28.8764C95.1955 27.8901 95.7678 27.1291 96.4984 26.5933C97.2412 26.0575 98.0936 25.7896 99.0556 25.7896C100.03 25.7896 100.882 26.0575 101.613 26.5933C102.343 27.1291 102.91 27.8901 103.311 28.8764C103.725 29.8627 103.932 31.0378 103.932 32.4016C103.932 33.7654 103.725 34.9405 103.311 35.9268C102.91 36.9131 102.343 37.6742 101.613 38.2099C100.882 38.7457 100.03 39.0136 99.0556 39.0136ZM95.7496 32.4016C95.7496 33.2296 95.8348 33.9785 96.0053 34.6482C96.1879 35.3058 96.4376 35.8598 96.7542 36.3104L100.298 27.5248C99.9201 27.3178 99.5061 27.2143 99.0556 27.2143C98.4102 27.2143 97.8379 27.4274 97.3386 27.8536C96.8394 28.2676 96.4497 28.8643 96.1697 29.6436C95.8896 30.4107 95.7496 31.3301 95.7496 32.4016ZM99.0556 37.6072C99.7009 37.6072 100.273 37.4002 100.772 36.9862C101.272 36.56 101.661 35.9572 101.941 35.1779C102.222 34.3986 102.362 33.4732 102.362 32.4016C102.362 31.5736 102.27 30.8308 102.088 30.1733C101.917 29.5035 101.674 28.9434 101.357 28.4929L97.7953 37.2967C98.1849 37.5037 98.605 37.6072 99.0556 37.6072Z" fill="#14234B"/>
<path d="M161.548 38.7944V37.5889C162.863 36.5417 164.007 35.5798 164.982 34.703C165.968 33.8263 166.729 32.98 167.265 32.1642C167.801 31.3483 168.068 30.5142 168.068 29.6618C168.068 28.8947 167.849 28.2919 167.411 27.8536C166.985 27.403 166.406 27.1778 165.676 27.1778C165.116 27.1778 164.641 27.2995 164.251 27.5431C163.861 27.7866 163.569 28.1093 163.374 28.5111C163.179 28.913 163.082 29.3452 163.082 29.808H161.566C161.578 28.9678 161.761 28.2493 162.114 27.6527C162.479 27.0438 162.966 26.5811 163.575 26.2645C164.196 25.9479 164.896 25.7896 165.676 25.7896C166.93 25.7896 167.904 26.1366 168.598 26.8307C169.292 27.5248 169.639 28.4563 169.639 29.6253C169.639 30.3924 169.475 31.1291 169.146 31.8354C168.817 32.5295 168.379 33.1992 167.831 33.8446C167.283 34.4899 166.668 35.111 165.986 35.7076C165.304 36.3043 164.616 36.8766 163.922 37.4245H169.986V38.7944H161.548Z" fill="#14234B"/>
<path d="M33.2729 104.96C32.4327 104.96 31.6778 104.808 31.008 104.504C30.3505 104.187 29.8208 103.731 29.419 103.134C29.0171 102.537 28.798 101.807 28.7614 100.942H30.3322C30.3566 101.673 30.6245 102.294 31.1359 102.805C31.6473 103.304 32.3597 103.554 33.2729 103.554C34.1618 103.554 34.8498 103.329 35.3369 102.878C35.824 102.415 36.0675 101.788 36.0675 100.997C36.0675 100.449 35.9275 99.9983 35.6474 99.6452C35.3673 99.2799 34.9899 99.012 34.515 98.8416C34.0523 98.6589 33.5347 98.5676 32.9624 98.5676H31.8482V97.1794H32.8163C33.6443 97.1794 34.3019 97.0029 34.7889 96.6497C35.2882 96.2966 35.5378 95.7791 35.5378 95.0972C35.5378 94.5249 35.3369 94.0561 34.9351 93.6908C34.5454 93.3255 33.9853 93.1428 33.2547 93.1428C32.5484 93.1428 31.9761 93.3437 31.5377 93.7456C31.0994 94.1352 30.8498 94.6466 30.7889 95.2798H29.2546C29.2789 94.5858 29.4616 93.9769 29.8025 93.4533C30.1435 92.9175 30.6062 92.4974 31.1907 92.193C31.7874 91.8886 32.4754 91.7364 33.2547 91.7364C34.0949 91.7364 34.795 91.8825 35.3552 92.1748C35.9275 92.467 36.3598 92.8627 36.652 93.362C36.9442 93.8491 37.0904 94.3909 37.0904 94.9876C37.0904 95.6208 36.8955 96.1809 36.5059 96.668C36.1162 97.1429 35.6535 97.4777 35.1177 97.6726V97.7822C35.8362 98.0014 36.4328 98.3727 36.9077 98.8963C37.3826 99.4199 37.6201 100.12 37.6201 100.997C37.6201 101.74 37.4435 102.409 37.0904 103.006C36.7494 103.603 36.2502 104.078 35.5926 104.431C34.9472 104.784 34.174 104.96 33.2729 104.96Z" fill="#14234B"/>
<path d="M94.8546 104.741V103.353H98.1606V93.7638L95.0372 94.3666V93.1976L98.672 91.9556H99.6949V103.353H103.184V104.741H94.8546Z" fill="#14234B"/>
<path d="M165.676 104.96C164.714 104.96 163.861 104.693 163.119 104.157C162.388 103.621 161.816 102.86 161.402 101.874C161 100.887 160.799 99.7122 160.799 98.3484C160.799 96.9846 161 95.8095 161.402 94.8232C161.816 93.8369 162.388 93.0758 163.119 92.5401C163.861 92.0043 164.714 91.7364 165.676 91.7364C166.65 91.7364 167.502 92.0043 168.233 92.5401C168.963 93.0758 169.53 93.8369 169.931 94.8232C170.345 95.8095 170.552 96.9846 170.552 98.3484C170.552 99.7122 170.345 100.887 169.931 101.874C169.53 102.86 168.963 103.621 168.233 104.157C167.502 104.693 166.65 104.96 165.676 104.96ZM162.37 98.3484C162.37 99.1764 162.455 99.9253 162.625 100.595C162.808 101.253 163.058 101.807 163.374 102.257L166.918 93.4716C166.54 93.2646 166.126 93.1611 165.676 93.1611C165.03 93.1611 164.458 93.3742 163.959 93.8004C163.46 94.2144 163.07 94.811 162.79 95.5903C162.51 96.3575 162.37 97.2768 162.37 98.3484ZM165.676 103.554C166.321 103.554 166.893 103.347 167.393 102.933C167.892 102.507 168.282 101.904 168.562 101.125C168.842 100.345 168.982 99.4199 168.982 98.3484C168.982 97.5204 168.89 96.7776 168.708 96.12C168.537 95.4503 168.294 94.8902 167.977 94.4396L164.415 103.243C164.805 103.45 165.225 103.554 165.676 103.554Z" fill="#14234B"/>
<path d="M33.1085 171.581C32.2318 171.581 31.4769 171.416 30.8437 171.087C30.2105 170.759 29.7112 170.314 29.3459 169.754C28.9806 169.194 28.7614 168.555 28.6884 167.836H30.2592C30.3688 168.53 30.6793 169.096 31.1907 169.535C31.7021 169.961 32.3475 170.174 33.1268 170.174C34.0401 170.174 34.7585 169.882 35.2821 169.297C35.8057 168.701 36.0675 167.952 36.0675 167.051C36.0675 166.101 35.7996 165.358 35.2638 164.822C34.7281 164.274 34.034 164 33.1816 164C32.4997 164 31.9152 164.159 31.4281 164.475C30.9533 164.78 30.5697 165.169 30.2774 165.644H28.8162L29.9121 158.576H36.7433V159.982H31.1176L30.4418 163.781H30.5332C30.8132 163.477 31.1907 163.209 31.6656 162.978C32.1527 162.746 32.7128 162.631 33.346 162.631C34.1862 162.631 34.9168 162.813 35.5378 163.179C36.171 163.532 36.6642 164.043 37.0173 164.713C37.3704 165.37 37.547 166.144 37.547 167.032C37.547 167.86 37.3704 168.622 37.0173 169.316C36.6764 169.998 36.171 170.545 35.5013 170.959C34.8437 171.374 34.0462 171.581 33.1085 171.581Z" fill="#14234B"/>
<path d="M91.3426 165.626V164.311H97.3701V165.626H91.3426ZM101.412 171.361V169.973H104.718V160.384L101.594 160.987V159.818L105.229 158.576H106.252V169.973H109.741V171.361H101.412Z" fill="#14234B"/>
<path d="M161.548 171.361V170.156C162.863 169.109 164.007 168.147 164.982 167.27C165.968 166.393 166.729 165.547 167.265 164.731C167.801 163.915 168.068 163.081 168.068 162.229C168.068 161.462 167.849 160.859 167.411 160.42C166.985 159.97 166.406 159.745 165.676 159.745C165.116 159.745 164.641 159.866 164.251 160.11C163.861 160.353 163.569 160.676 163.374 161.078C163.179 161.48 163.082 161.912 163.082 162.375H161.566C161.578 161.535 161.761 160.816 162.114 160.22C162.479 159.611 162.966 159.148 163.575 158.831C164.196 158.515 164.896 158.357 165.676 158.357C166.93 158.357 167.904 158.704 168.598 159.398C169.292 160.092 169.639 161.023 169.639 162.192C169.639 162.959 169.475 163.696 169.146 164.402C168.817 165.096 168.379 165.766 167.831 166.411C167.283 167.057 166.668 167.678 165.986 168.275C165.304 168.871 164.616 169.443 163.922 169.991H169.986V171.361H161.548Z" fill="#14234B"/>
<path d="M172.693 1H194.002C197.365 1 200.091 3.72587 200.091 7.0884V194.002C200.091 197.365 197.365 200.091 194.002 200.091H172.693" stroke="#14234B" stroke-width="0.681818" stroke-linecap="round"/>
<path d="M28.3978 1H7.08839C3.72586 1 1 3.72587 1 7.0884V194.002C1 197.365 3.72587 200.091 7.0884 200.091H28.3978" stroke="#14234B" stroke-width="0.681818" stroke-linecap="round"/>
<rect x="381.455" y="15.3184" width="169.773" height="33.4091" rx="16.7045" transform="rotate(90 381.455 15.3184)" fill="#D4FFED"/>
<path d="M358.98 38.7944V37.5889C360.295 36.5417 361.44 35.5798 362.414 34.703C363.401 33.8263 364.162 32.98 364.697 32.1642C365.233 31.3483 365.501 30.5142 365.501 29.6618C365.501 28.8947 365.282 28.2919 364.843 27.8536C364.417 27.403 363.839 27.1778 363.108 27.1778C362.548 27.1778 362.073 27.2995 361.684 27.5431C361.294 27.7866 361.002 28.1093 360.807 28.5111C360.612 28.913 360.515 29.3452 360.515 29.808H358.999C359.011 28.9678 359.193 28.2493 359.547 27.6527C359.912 27.0438 360.399 26.5811 361.008 26.2645C361.629 25.9479 362.329 25.7896 363.108 25.7896C364.363 25.7896 365.337 26.1366 366.031 26.8307C366.725 27.5248 367.072 28.4563 367.072 29.6253C367.072 30.3924 366.907 31.1291 366.579 31.8354C366.25 32.5295 365.812 33.1992 365.264 33.8446C364.716 34.4899 364.101 35.111 363.419 35.7076C362.737 36.3043 362.049 36.8766 361.355 37.4245H367.419V38.7944H358.98Z" fill="#14234B"/>
<path d="M421.342 33.0592V31.7441H427.37V33.0592H421.342ZM431.411 38.7944V37.4063H434.717V27.817L431.594 28.4198V27.2508L435.229 26.0088H436.252V37.4063H439.74V38.7944H431.411Z" fill="#14234B"/>
<path d="M495.675 39.0136C494.713 39.0136 493.861 38.7457 493.118 38.2099C492.388 37.6742 491.815 36.9131 491.401 35.9268C491 34.9405 490.799 33.7654 490.799 32.4016C490.799 31.0378 491 29.8627 491.401 28.8764C491.815 27.8901 492.388 27.1291 493.118 26.5933C493.861 26.0575 494.713 25.7896 495.675 25.7896C496.65 25.7896 497.502 26.0575 498.233 26.5933C498.963 27.1291 499.529 27.8901 499.931 28.8764C500.345 29.8627 500.552 31.0378 500.552 32.4016C500.552 33.7654 500.345 34.9405 499.931 35.9268C499.529 36.9131 498.963 37.6742 498.233 38.2099C497.502 38.7457 496.65 39.0136 495.675 39.0136ZM492.369 32.4016C492.369 33.2296 492.455 33.9785 492.625 34.6482C492.808 35.3058 493.057 35.8598 493.374 36.3104L496.917 27.5248C496.54 27.3178 496.126 27.2143 495.675 27.2143C495.03 27.2143 494.458 27.4274 493.959 27.8536C493.459 28.2676 493.07 28.8643 492.79 29.6436C492.509 30.4107 492.369 31.3301 492.369 32.4016ZM495.675 37.6072C496.321 37.6072 496.893 37.4002 497.392 36.9862C497.892 36.56 498.281 35.9572 498.561 35.1779C498.841 34.3986 498.981 33.4732 498.981 32.4016C498.981 31.5736 498.89 30.8308 498.707 30.1733C498.537 29.5035 498.293 28.9434 497.977 28.4929L494.415 37.2967C494.805 37.5037 495.225 37.6072 495.675 37.6072Z" fill="#14234B"/>
<path d="M363.108 104.961C362.232 104.961 361.477 104.796 360.843 104.467C360.21 104.139 359.711 103.694 359.346 103.134C358.98 102.574 358.761 101.935 358.688 101.216H360.259C360.369 101.91 360.679 102.477 361.19 102.915C361.702 103.341 362.347 103.554 363.127 103.554C364.04 103.554 364.758 103.262 365.282 102.677C365.805 102.081 366.067 101.332 366.067 100.431C366.067 99.4811 365.799 98.7383 365.264 98.2025C364.728 97.6546 364.034 97.3806 363.181 97.3806C362.499 97.3806 361.915 97.5389 361.428 97.8555C360.953 98.1599 360.569 98.5496 360.277 99.0244H358.816L359.912 91.9558H366.743V93.3622H361.117L360.442 97.1614H360.533C360.813 96.857 361.19 96.5891 361.665 96.3577C362.152 96.1264 362.713 96.0107 363.346 96.0107C364.186 96.0107 364.917 96.1933 365.538 96.5586C366.171 96.9118 366.664 97.4232 367.017 98.0929C367.37 98.7505 367.547 99.5237 367.547 100.413C367.547 101.241 367.37 102.002 367.017 102.696C366.676 103.378 366.171 103.926 365.501 104.34C364.843 104.754 364.046 104.961 363.108 104.961Z" fill="#14234B"/>
<path d="M424.854 104.741V103.353H428.16V93.7641L425.037 94.3668V93.1978L428.672 91.9558H429.695V103.353H433.183V104.741H424.854Z" fill="#14234B"/>
<path d="M487.962 99.0062V97.6911H493.99V99.0062H487.962ZM498.031 104.741V103.353H501.337V93.7641L498.214 94.3668V93.1978L501.849 91.9558H502.872V103.353H506.36V104.741H498.031Z" fill="#14234B"/>
<path d="M355.395 165.626V164.311H361.423V165.626H355.395ZM365.538 171.361V170.156C366.853 169.109 367.997 168.147 368.971 167.27C369.958 166.393 370.719 165.547 371.255 164.731C371.79 163.915 372.058 163.081 372.058 162.229C372.058 161.462 371.839 160.859 371.401 160.42C370.974 159.97 370.396 159.745 369.665 159.745C369.105 159.745 368.63 159.866 368.241 160.11C367.851 160.353 367.559 160.676 367.364 161.078C367.169 161.48 367.072 161.912 367.072 162.375H365.556C365.568 161.535 365.751 160.816 366.104 160.22C366.469 159.611 366.956 159.148 367.565 158.831C368.186 158.515 368.886 158.357 369.665 158.357C370.92 158.357 371.894 158.704 372.588 159.398C373.282 160.092 373.629 161.023 373.629 162.192C373.629 162.959 373.465 163.696 373.136 164.402C372.807 165.096 372.369 165.766 371.821 166.411C371.273 167.057 370.658 167.678 369.976 168.275C369.294 168.871 368.606 169.443 367.912 169.991H373.976V171.361H365.538Z" fill="#14234B"/>
<path d="M429.055 171.581C428.093 171.581 427.241 171.313 426.498 170.777C425.768 170.241 425.195 169.48 424.781 168.494C424.379 167.507 424.179 166.332 424.179 164.969C424.179 163.605 424.379 162.43 424.781 161.443C425.195 160.457 425.768 159.696 426.498 159.16C427.241 158.624 428.093 158.357 429.055 158.357C430.029 158.357 430.882 158.624 431.612 159.16C432.343 159.696 432.909 160.457 433.311 161.443C433.725 162.43 433.932 163.605 433.932 164.969C433.932 166.332 433.725 167.507 433.311 168.494C432.909 169.48 432.343 170.241 431.612 170.777C430.882 171.313 430.029 171.581 429.055 171.581ZM425.749 164.969C425.749 165.797 425.835 166.545 426.005 167.215C426.188 167.873 426.437 168.427 426.754 168.877L430.297 160.092C429.92 159.885 429.506 159.781 429.055 159.781C428.41 159.781 427.838 159.994 427.338 160.42C426.839 160.834 426.449 161.431 426.169 162.21C425.889 162.978 425.749 163.897 425.749 164.969ZM429.055 170.174C429.701 170.174 430.273 169.967 430.772 169.553C431.272 169.127 431.661 168.524 431.941 167.745C432.221 166.966 432.361 166.04 432.361 164.969C432.361 164.14 432.27 163.398 432.087 162.74C431.917 162.07 431.673 161.51 431.357 161.06L427.795 169.864C428.185 170.071 428.605 170.174 429.055 170.174Z" fill="#14234B"/>
<path d="M495.675 171.581C494.713 171.581 493.861 171.313 493.118 170.777C492.388 170.241 491.815 169.48 491.401 168.494C491 167.507 490.799 166.332 490.799 164.969C490.799 163.605 491 162.43 491.401 161.443C491.815 160.457 492.388 159.696 493.118 159.16C493.861 158.624 494.713 158.357 495.675 158.357C496.65 158.357 497.502 158.624 498.233 159.16C498.963 159.696 499.529 160.457 499.931 161.443C500.345 162.43 500.552 163.605 500.552 164.969C500.552 166.332 500.345 167.507 499.931 168.494C499.529 169.48 498.963 170.241 498.233 170.777C497.502 171.313 496.65 171.581 495.675 171.581ZM492.369 164.969C492.369 165.797 492.455 166.545 492.625 167.215C492.808 167.873 493.057 168.427 493.374 168.877L496.917 160.092C496.54 159.885 496.126 159.781 495.675 159.781C495.03 159.781 494.458 159.994 493.959 160.42C493.459 160.834 493.07 161.431 492.79 162.21C492.509 162.978 492.369 163.897 492.369 164.969ZM495.675 170.174C496.321 170.174 496.893 169.967 497.392 169.553C497.892 169.127 498.281 168.524 498.561 167.745C498.841 166.966 498.981 166.04 498.981 164.969C498.981 164.14 498.89 163.398 498.707 162.74C498.537 162.07 498.293 161.51 497.977 161.06L494.415 169.864C494.805 170.071 495.225 170.174 495.675 170.174Z" fill="#14234B"/>
<path d="M502.693 1H524.002C527.365 1 530.091 3.72587 530.091 7.0884V194.002C530.091 197.365 527.365 200.091 524.002 200.091H502.693" stroke="#14234B" stroke-width="0.681818" stroke-linecap="round"/>
<path d="M358.398 1H337.088C333.726 1 331 3.72587 331 7.0884V194.002C331 197.365 333.726 200.091 337.088 200.091H358.398" stroke="#14234B" stroke-width="0.681818" stroke-linecap="round"/>
<path d="M685.395 33.0592V31.7441H691.423V33.0592H685.395ZM695.538 38.7944V37.5889C696.853 36.5417 697.997 35.5798 698.971 34.703C699.958 33.8263 700.719 32.98 701.255 32.1642C701.79 31.3483 702.058 30.5142 702.058 29.6618C702.058 28.8947 701.839 28.2919 701.401 27.8536C700.974 27.403 700.396 27.1778 699.665 27.1778C699.105 27.1778 698.63 27.2995 698.241 27.5431C697.851 27.7866 697.559 28.1093 697.364 28.5111C697.169 28.913 697.072 29.3452 697.072 29.808H695.556C695.568 28.9678 695.751 28.2493 696.104 27.6527C696.469 27.0438 696.956 26.5811 697.565 26.2645C698.186 25.9479 698.886 25.7896 699.665 25.7896C700.92 25.7896 701.894 26.1366 702.588 26.8307C703.282 27.5248 703.629 28.4563 703.629 29.6253C703.629 30.3924 703.465 31.1291 703.136 31.8354C702.807 32.5295 702.369 33.1992 701.821 33.8446C701.273 34.4899 700.658 35.111 699.976 35.7076C699.294 36.3043 698.606 36.8766 697.912 37.4245H703.976V38.7944H695.538Z" fill="#14234B"/>
<path d="M751.343 33.0592V31.7441H757.37V33.0592H751.343ZM761.412 38.7944V37.4063H764.718V27.817L761.594 28.4198V27.2508L765.229 26.0088H766.252V37.4063H769.741V38.7944H761.412Z" fill="#14234B"/>
<path d="M825.675 39.0136C824.713 39.0136 823.861 38.7457 823.118 38.2099C822.388 37.6742 821.815 36.9131 821.401 35.9268C821 34.9405 820.799 33.7654 820.799 32.4016C820.799 31.0378 821 29.8627 821.401 28.8764C821.815 27.8901 822.388 27.1291 823.118 26.5933C823.861 26.0575 824.713 25.7896 825.675 25.7896C826.65 25.7896 827.502 26.0575 828.233 26.5933C828.963 27.1291 829.529 27.8901 829.931 28.8764C830.345 29.8627 830.552 31.0378 830.552 32.4016C830.552 33.7654 830.345 34.9405 829.931 35.9268C829.529 36.9131 828.963 37.6742 828.233 38.2099C827.502 38.7457 826.65 39.0136 825.675 39.0136ZM822.369 32.4016C822.369 33.2296 822.455 33.9785 822.625 34.6482C822.808 35.3058 823.057 35.8598 823.374 36.3104L826.917 27.5248C826.54 27.3178 826.126 27.2143 825.675 27.2143C825.03 27.2143 824.458 27.4274 823.959 27.8536C823.459 28.2676 823.07 28.8643 822.79 29.6436C822.509 30.4107 822.369 31.3301 822.369 32.4016ZM825.675 37.6072C826.321 37.6072 826.893 37.4002 827.392 36.9862C827.892 36.56 828.281 35.9572 828.561 35.1779C828.841 34.3986 828.981 33.4732 828.981 32.4016C828.981 31.5736 828.89 30.8308 828.707 30.1733C828.537 29.5035 828.293 28.9434 827.977 28.4929L824.415 37.2967C824.805 37.5037 825.225 37.6072 825.675 37.6072Z" fill="#14234B"/>
<circle cx="694.068" cy="100.205" r="18.75" fill="#0053D6"/>
<path d="M684.208 104.741V103.353H687.514V93.7641L684.391 94.3668V93.1978L688.025 91.9558H689.048V103.353H692.537V104.741H684.208ZM695.464 104.741V103.353H698.77V93.7641L695.647 94.3668V93.1978L699.282 91.9558H700.305V103.353H703.793V104.741H695.464Z" fill="white"/>
<path d="M751.343 99.0062V97.6911H757.37V99.0062H751.343ZM761.485 104.741V103.536C762.8 102.489 763.945 101.527 764.919 100.65C765.905 99.7733 766.666 98.927 767.202 98.1112C767.738 97.2953 768.005 96.4612 768.005 95.6089C768.005 94.8417 767.786 94.239 767.348 93.8006C766.922 93.3501 766.343 93.1248 765.613 93.1248C765.053 93.1248 764.578 93.2466 764.188 93.4901C763.798 93.7336 763.506 94.0563 763.311 94.4581C763.116 94.86 763.019 95.2923 763.019 95.755H761.503C761.515 94.9148 761.698 94.1963 762.051 93.5997C762.416 92.9908 762.903 92.5281 763.512 92.2115C764.133 91.8949 764.833 91.7366 765.613 91.7366C766.867 91.7366 767.841 92.0837 768.535 92.7777C769.229 93.4718 769.576 94.4034 769.576 95.5723C769.576 96.3395 769.412 97.0762 769.083 97.7824C768.754 98.4765 768.316 99.1462 767.768 99.7916C767.22 100.437 766.605 101.058 765.923 101.655C765.241 102.251 764.553 102.824 763.859 103.372H769.923V104.741H761.485Z" fill="#14234B"/>
<path d="M817.962 99.0062V97.6911H823.99V99.0062H817.962ZM828.032 104.741V103.353H831.338V93.7641L828.214 94.3668V93.1978L831.849 91.9558H832.872V103.353H836.361V104.741H828.032Z" fill="#14234B"/>
<path d="M688.908 171.361V169.973H692.214V160.384L689.09 160.987V159.818L692.725 158.576H693.748V169.973H697.237V171.361H688.908Z" fill="#14234B"/>
<path d="M751.343 165.626V164.311H757.37V165.626H751.343ZM765.868 171.581C764.748 171.581 763.835 171.313 763.129 170.777C762.435 170.229 761.917 169.498 761.576 168.585C761.247 167.66 761.083 166.618 761.083 165.462C761.083 164.061 761.278 162.831 761.667 161.772C762.057 160.701 762.617 159.866 763.348 159.27C764.091 158.661 764.98 158.357 766.015 158.357C766.83 158.357 767.524 158.515 768.097 158.831C768.681 159.136 769.138 159.556 769.467 160.092C769.808 160.615 770.009 161.206 770.069 161.863H768.626C768.505 161.218 768.212 160.707 767.75 160.329C767.287 159.939 766.709 159.745 766.015 159.745C765.406 159.745 764.846 159.939 764.334 160.329C763.835 160.707 763.421 161.297 763.092 162.101C762.776 162.892 762.593 163.903 762.544 165.133H762.636C762.916 164.609 763.348 164.153 763.932 163.763C764.517 163.373 765.223 163.179 766.051 163.179C766.818 163.179 767.506 163.355 768.115 163.708C768.724 164.061 769.205 164.548 769.558 165.169C769.923 165.79 770.106 166.497 770.106 167.288C770.106 168.068 769.929 168.786 769.576 169.443C769.235 170.089 768.742 170.606 768.097 170.996C767.464 171.386 766.721 171.581 765.868 171.581ZM765.759 170.192C766.599 170.192 767.275 169.924 767.786 169.389C768.298 168.853 768.553 168.183 768.553 167.38C768.553 166.564 768.298 165.894 767.786 165.37C767.275 164.835 766.599 164.567 765.759 164.567C765.199 164.567 764.706 164.688 764.279 164.932C763.865 165.176 763.537 165.51 763.293 165.937C763.062 166.363 762.946 166.844 762.946 167.38C762.946 167.915 763.062 168.396 763.293 168.822C763.537 169.249 763.865 169.584 764.279 169.827C764.706 170.071 765.199 170.192 765.759 170.192Z" fill="#14234B"/>
<path d="M821.474 171.361V169.973H824.78V160.384L821.657 160.987V159.818L825.292 158.576H826.315V169.973H829.803V171.361H821.474Z" fill="#14234B"/>
<path d="M832.693 1H854.002C857.365 1 860.091 3.72587 860.091 7.0884V194.002C860.091 197.365 857.365 200.091 854.002 200.091H832.693" stroke="#14234B" stroke-width="0.681818" stroke-linecap="round"/>
<path d="M688.398 1H667.088C663.726 1 661 3.72587 661 7.0884V194.002C661 197.365 663.726 200.091 667.088 200.091H688.398" stroke="#14234B" stroke-width="0.681818" stroke-linecap="round"/>
<circle cx="34.0681" cy="274.75" r="18.75" fill="#F0EBFF"/>
<path d="M32.9556 280.355C32.1154 280.355 31.3604 280.203 30.6907 279.899C30.0331 279.582 29.5034 279.126 29.1016 278.529C28.6998 277.932 28.4806 277.202 28.444 276.337H30.0149C30.0392 277.068 30.3071 277.689 30.8185 278.2C31.3299 278.699 32.0423 278.949 32.9556 278.949C33.8445 278.949 34.5324 278.724 35.0195 278.273C35.5066 277.81 35.7501 277.183 35.7501 276.392C35.7501 275.844 35.6101 275.393 35.33 275.04C35.05 274.675 34.6725 274.407 34.1976 274.237C33.7349 274.054 33.2174 273.963 32.645 273.963H31.5309V272.574H32.4989C33.3269 272.574 33.9845 272.398 34.4716 272.045C34.9708 271.692 35.2204 271.174 35.2204 270.492C35.2204 269.92 35.0195 269.451 34.6177 269.086C34.228 268.72 33.6679 268.538 32.9373 268.538C32.231 268.538 31.6587 268.739 31.2204 269.141C30.782 269.53 30.5324 270.042 30.4715 270.675H28.9372C28.9616 269.981 29.1442 269.372 29.4852 268.848C29.8261 268.313 30.2888 267.892 30.8733 267.588C31.47 267.284 32.158 267.131 32.9373 267.131C33.7775 267.131 34.4777 267.278 35.0378 267.57C35.6101 267.862 36.0424 268.258 36.3346 268.757C36.6269 269.244 36.773 269.786 36.773 270.383C36.773 271.016 36.5782 271.576 36.1885 272.063C35.7988 272.538 35.3361 272.873 34.8003 273.068V273.177C35.5188 273.396 36.1154 273.768 36.5903 274.291C37.0652 274.815 37.3027 275.515 37.3027 276.392C37.3027 277.135 37.1261 277.804 36.773 278.401C36.432 278.998 35.9328 279.473 35.2752 279.826C34.6299 280.179 33.8566 280.355 32.9556 280.355Z" fill="#14234B"/>
<path d="M89.6365 284.735L110.773 264.643" stroke="#14234B" stroke-width="0.681818" stroke-linecap="round"/>
<path d="M110.05 285.318L89.9584 264.182" stroke="#14234B" stroke-width="0.681818" stroke-linecap="round"/>
<circle cx="166.341" cy="274.75" r="18.75" fill="#D4FFED"/>
<path d="M160.936 280.136V278.931C162.251 277.884 163.396 276.922 164.37 276.045C165.356 275.168 166.117 274.322 166.653 273.506C167.189 272.69 167.457 271.856 167.457 271.004C167.457 270.236 167.238 269.634 166.799 269.195C166.373 268.745 165.795 268.52 165.064 268.52C164.504 268.52 164.029 268.641 163.639 268.885C163.25 269.128 162.958 269.451 162.763 269.853C162.568 270.255 162.47 270.687 162.47 271.15H160.954C160.967 270.31 161.149 269.591 161.502 268.994C161.868 268.386 162.355 267.923 162.964 267.606C163.585 267.29 164.285 267.131 165.064 267.131C166.318 267.131 167.292 267.478 167.987 268.173C168.681 268.867 169.028 269.798 169.028 270.967C169.028 271.734 168.863 272.471 168.535 273.177C168.206 273.871 167.767 274.541 167.219 275.186C166.671 275.832 166.057 276.453 165.375 277.049C164.693 277.646 164.005 278.218 163.311 278.766H169.375V280.136H160.936Z" fill="#14234B"/>
<path d="M217.818 274.75H247.136" stroke="#14234B" stroke-width="0.681818" stroke-linecap="round"/>
<path d="M232.477 260.091L232.477 289.409" stroke="#14234B" stroke-width="0.681818" stroke-linecap="round"/>
<circle cx="298.614" cy="274.75" r="18.75" fill="#F0EBFF"/>
<path d="M293.136 280.136V278.748H296.442V269.159L293.318 269.762V268.593L296.953 267.351H297.976V278.748H301.465V280.136H293.136Z" fill="#14234B"/>
<path d="M354.182 284.735L375.318 264.643" stroke="#14234B" stroke-width="0.681818" stroke-linecap="round"/>
<path d="M374.595 285.318L354.504 264.182" stroke="#14234B" stroke-width="0.681818" stroke-linecap="round"/>
<circle cx="430.886" cy="274.75" r="18.75" fill="#D4FFED"/>
<path d="M429.61 280.355C428.733 280.355 427.978 280.191 427.345 279.862C426.711 279.533 426.212 279.089 425.847 278.529C425.482 277.969 425.262 277.329 425.189 276.611H426.76C426.87 277.305 427.18 277.871 427.692 278.31C428.203 278.736 428.848 278.949 429.628 278.949C430.541 278.949 431.259 278.657 431.783 278.072C432.307 277.476 432.568 276.727 432.568 275.826C432.568 274.876 432.301 274.133 431.765 273.597C431.229 273.049 430.535 272.775 429.683 272.775C429.001 272.775 428.416 272.934 427.929 273.25C427.454 273.555 427.071 273.944 426.778 274.419H425.317L426.413 267.351H433.244V268.757H427.619L426.943 272.556H427.034C427.314 272.252 427.692 271.984 428.167 271.753C428.654 271.521 429.214 271.405 429.847 271.405C430.687 271.405 431.418 271.588 432.039 271.953C432.672 272.307 433.165 272.818 433.518 273.488C433.871 274.145 434.048 274.918 434.048 275.807C434.048 276.635 433.871 277.396 433.518 278.091C433.177 278.772 432.672 279.32 432.002 279.734C431.345 280.148 430.547 280.355 429.61 280.355Z" fill="#14234B"/>
<path d="M482.364 274.75H511.682" stroke="#14234B" stroke-width="0.681818" stroke-linecap="round"/>
<path d="M497.023 260.091L497.023 289.409" stroke="#14234B" stroke-width="0.681818" stroke-linecap="round"/>
<circle cx="563.159" cy="274.75" r="18.75" fill="#F0EBFF"/>
<path d="M561.882 280.355C560.92 280.355 560.068 280.088 559.325 279.552C558.594 279.016 558.022 278.255 557.608 277.269C557.206 276.282 557.005 275.107 557.005 273.743C557.005 272.38 557.206 271.205 557.608 270.218C558.022 269.232 558.594 268.471 559.325 267.935C560.068 267.399 560.92 267.131 561.882 267.131C562.856 267.131 563.709 267.399 564.439 267.935C565.17 268.471 565.736 269.232 566.138 270.218C566.552 271.205 566.759 272.38 566.759 273.743C566.759 275.107 566.552 276.282 566.138 277.269C565.736 278.255 565.17 279.016 564.439 279.552C563.709 280.088 562.856 280.355 561.882 280.355ZM558.576 273.743C558.576 274.571 558.661 275.32 558.832 275.99C559.015 276.648 559.264 277.202 559.581 277.652L563.124 268.867C562.747 268.66 562.333 268.556 561.882 268.556C561.237 268.556 560.665 268.769 560.165 269.195C559.666 269.609 559.276 270.206 558.996 270.985C558.716 271.753 558.576 272.672 558.576 273.743ZM561.882 278.949C562.528 278.949 563.1 278.742 563.599 278.328C564.098 277.902 564.488 277.299 564.768 276.52C565.048 275.74 565.188 274.815 565.188 273.743C565.188 272.915 565.097 272.173 564.914 271.515C564.744 270.845 564.5 270.285 564.184 269.835L560.622 278.638C561.012 278.845 561.432 278.949 561.882 278.949Z" fill="#14234B"/>
<path d="M618.727 284.735L639.864 264.643" stroke="#14234B" stroke-width="0.681818" stroke-linecap="round"/>
<path d="M639.141 285.318L619.049 264.182" stroke="#14234B" stroke-width="0.681818" stroke-linecap="round"/>
<circle cx="695.432" cy="274.75" r="18.75" fill="#D4FFED"/>
<path d="M687.043 274.401V273.086H693.071V274.401H687.043ZM697.186 280.136V278.931C698.501 277.884 699.645 276.922 700.62 276.045C701.606 275.168 702.367 274.322 702.903 273.506C703.439 272.69 703.706 271.856 703.706 271.004C703.706 270.236 703.487 269.634 703.049 269.195C702.623 268.745 702.044 268.52 701.314 268.52C700.754 268.52 700.279 268.641 699.889 268.885C699.499 269.128 699.207 269.451 699.012 269.853C698.817 270.255 698.72 270.687 698.72 271.15H697.204C697.216 270.31 697.399 269.591 697.752 268.994C698.117 268.386 698.604 267.923 699.213 267.606C699.834 267.29 700.534 267.131 701.314 267.131C702.568 267.131 703.542 267.478 704.236 268.173C704.93 268.867 705.277 269.798 705.277 270.967C705.277 271.734 705.113 272.471 704.784 273.177C704.455 273.871 704.017 274.541 703.469 275.186C702.921 275.832 702.306 276.453 701.624 277.049C700.942 277.646 700.254 278.218 699.56 278.766H705.624V280.136H697.186Z" fill="#14234B"/>
<path d="M746.909 269.636H776.227" stroke="#14234B" stroke-width="0.681818" stroke-linecap="round"/>
<path d="M746.909 279.864H776.227" stroke="#14234B" stroke-width="0.681818" stroke-linecap="round"/>
<circle cx="827.705" cy="274.75" r="18.75" fill="#0053D6"/>
<path d="M818.129 280.136V278.748H821.435V269.159L818.312 269.762V268.593L821.946 267.351H822.969V278.748H826.458V280.136H818.129ZM829.385 280.136V278.748H832.691V269.159L829.568 269.762V268.593L833.203 267.351H834.226V278.748H837.714V280.136H829.385Z" fill="white"/>
<path d="M255.318 110.189L276.455 90.0978" stroke="#14234B" stroke-width="0.681818" stroke-linecap="round"/>
<path d="M275.732 110.773L255.64 89.6363" stroke="#14234B" stroke-width="0.681818" stroke-linecap="round"/>
<path d="M581.227 95.0908H610.545" stroke="#14234B" stroke-width="0.681818" stroke-linecap="round"/>
<path d="M581.227 105.318H610.545" stroke="#14234B" stroke-width="0.681818" stroke-linecap="round"/>
</svg>
