<?xml version="1.0" encoding="UTF-8" standalone="no"?>
<!DOCTYPE svg PUBLIC "-//W3C//DTD SVG 1.1//EN"
 "http://www.w3.org/Graphics/SVG/1.1/DTD/svg11.dtd">
<!-- Generated by graphviz version 2.49.3 (20211023.0002)
 -->
<!-- Pages: 1 -->
<svg width="1142pt" height="203pt"
 viewBox="0.00 0.00 1142.00 203.00" xmlns="http://www.w3.org/2000/svg" xmlns:xlink="http://www.w3.org/1999/xlink">
<g id="graph0" class="graph" transform="scale(1 1) rotate(0) translate(4 199)">
<polygon fill="white" stroke="transparent" points="-4,4 -4,-199 1138,-199 1138,4 -4,4"/>
<!-- a -->
<g id="node1" class="node">
<title>a</title>
<ellipse fill="none" stroke="black" cx="27" cy="-108" rx="27" ry="18"/>
<text text-anchor="middle" x="27" y="-104.3" font-family="Times New Roman,serif" font-size="14.00">a</text>
</g>
<!-- b -->
<g id="node2" class="node">
<title>b</title>
<ellipse fill="none" stroke="black" cx="117" cy="-62" rx="27" ry="18"/>
<text text-anchor="middle" x="117" y="-58.3" font-family="Times New Roman,serif" font-size="14.00">b</text>
</g>
<!-- a&#45;&#45;b -->
<g id="edge1" class="edge">
<title>a&#45;&#45;b</title>
<path fill="none" stroke="black" d="M48.85,-97.1C62.88,-89.77 81.3,-80.14 95.29,-72.82"/>
</g>
<!-- c -->
<g id="node3" class="node">
<title>c</title>
<ellipse fill="none" stroke="black" cx="207" cy="-100" rx="27" ry="18"/>
<text text-anchor="middle" x="207" y="-96.3" font-family="Times New Roman,serif" font-size="14.00">c</text>
</g>
<!-- a&#45;&#45;c -->
<g id="edge2" class="edge">
<title>a&#45;&#45;c</title>
<path fill="none" stroke="black" d="M54.26,-106.82C88.02,-105.3 146.26,-102.69 179.92,-101.17"/>
</g>
<!-- d -->
<g id="node4" class="node">
<title>d</title>
<ellipse fill="none" stroke="black" cx="207" cy="-154" rx="27" ry="18"/>
<text text-anchor="middle" x="207" y="-150.3" font-family="Times New Roman,serif" font-size="14.00">d</text>
</g>
<!-- a&#45;&#45;d -->
<g id="edge3" class="edge">
<title>a&#45;&#45;d</title>
<path fill="none" stroke="black" d="M52.38,-114.3C86.37,-123.08 147.65,-138.92 181.63,-147.7"/>
</g>
<!-- b&#45;&#45;c -->
<g id="edge4" class="edge">
<title>b&#45;&#45;c</title>
<path fill="none" stroke="black" d="M140.21,-71.59C153.55,-77.35 170.46,-84.65 183.8,-90.41"/>
</g>
<!-- e -->
<g id="node5" class="node">
<title>e</title>
<ellipse fill="none" stroke="black" cx="297" cy="-54" rx="27" ry="18"/>
<text text-anchor="middle" x="297" y="-50.3" font-family="Times New Roman,serif" font-size="14.00">e</text>
</g>
<!-- b&#45;&#45;e -->
<g id="edge5" class="edge">
<title>b&#45;&#45;e</title>
<path fill="none" stroke="black" d="M144.26,-60.82C178.02,-59.3 236.26,-56.69 269.92,-55.17"/>
</g>
<!-- c&#45;&#45;e -->
<g id="edge6" class="edge">
<title>c&#45;&#45;e</title>
<path fill="none" stroke="black" d="M228.85,-89.1C242.88,-81.77 261.3,-72.14 275.29,-64.82"/>
</g>
<!-- f -->
<g id="node6" class="node">
<title>f</title>
<ellipse fill="none" stroke="black" cx="297" cy="-108" rx="27" ry="18"/>
<text text-anchor="middle" x="297" y="-104.3" font-family="Times New Roman,serif" font-size="14.00">f</text>
</g>
<!-- c&#45;&#45;f -->
<g id="edge7" class="edge">
<title>c&#45;&#45;f</title>
<path fill="none" stroke="black" d="M233.93,-102.36C245.28,-103.39 258.58,-104.6 269.95,-105.63"/>
</g>
<!-- d&#45;&#45;f -->
<g id="edge8" class="edge">
<title>d&#45;&#45;f</title>
<path fill="none" stroke="black" d="M228.85,-143.1C242.88,-135.77 261.3,-126.14 275.29,-118.82"/>
</g>
<!-- g -->
<g id="node7" class="node">
<title>g</title>
<ellipse fill="none" stroke="black" cx="387" cy="-177" rx="27" ry="18"/>
<text text-anchor="middle" x="387" y="-173.3" font-family="Times New Roman,serif" font-size="14.00">g</text>
</g>
<!-- d&#45;&#45;g -->
<g id="edge9" class="edge">
<title>d&#45;&#45;g</title>
<path fill="none" stroke="black" d="M233.88,-157.34C267.73,-161.72 326.66,-169.33 360.37,-173.69"/>
</g>
<!-- h -->
<g id="node8" class="node">
<title>h</title>
<ellipse fill="none" stroke="black" cx="387" cy="-31" rx="27" ry="18"/>
<text text-anchor="middle" x="387" y="-27.3" font-family="Times New Roman,serif" font-size="14.00">h</text>
</g>
<!-- e&#45;&#45;h -->
<g id="edge10" class="edge">
<title>e&#45;&#45;h</title>
<path fill="none" stroke="black" d="M322.51,-47.59C334.72,-44.4 349.43,-40.56 361.62,-37.37"/>
</g>
<!-- f&#45;&#45;g -->
<g id="edge11" class="edge">
<title>f&#45;&#45;g</title>
<path fill="none" stroke="black" d="M315.39,-121.63C330.81,-133.73 353.23,-151.31 368.65,-163.4"/>
</g>
<!-- f&#45;&#45;h -->
<g id="edge12" class="edge">
<title>f&#45;&#45;h</title>
<path fill="none" stroke="black" d="M314.14,-93.88C330.02,-79.98 354.12,-58.9 369.96,-45.03"/>
</g>
<!-- i -->
<g id="node9" class="node">
<title>i</title>
<ellipse fill="none" stroke="black" cx="387" cy="-85" rx="27" ry="18"/>
<text text-anchor="middle" x="387" y="-81.3" font-family="Times New Roman,serif" font-size="14.00">i</text>
</g>
<!-- f&#45;&#45;i -->
<g id="edge13" class="edge">
<title>f&#45;&#45;i</title>
<path fill="none" stroke="black" d="M322.51,-101.59C334.72,-98.4 349.43,-94.56 361.62,-91.37"/>
</g>
<!-- j -->
<g id="node10" class="node">
<title>j</title>
<ellipse fill="none" stroke="black" cx="477" cy="-131" rx="27" ry="18"/>
<text text-anchor="middle" x="477" y="-127.3" font-family="Times New Roman,serif" font-size="14.00">j</text>
</g>
<!-- f&#45;&#45;j -->
<g id="edge14" class="edge">
<title>f&#45;&#45;j</title>
<path fill="none" stroke="black" d="M323.88,-111.34C357.73,-115.72 416.66,-123.33 450.37,-127.69"/>
</g>
<!-- k -->
<g id="node11" class="node">
<title>k</title>
<ellipse fill="none" stroke="black" cx="567" cy="-177" rx="27" ry="18"/>
<text text-anchor="middle" x="567" y="-173.3" font-family="Times New Roman,serif" font-size="14.00">k</text>
</g>
<!-- g&#45;&#45;k -->
<g id="edge15" class="edge">
<title>g&#45;&#45;k</title>
<path fill="none" stroke="black" d="M414.26,-177C448.02,-177 506.26,-177 539.92,-177"/>
</g>
<!-- o -->
<g id="node12" class="node">
<title>o</title>
<ellipse fill="none" stroke="black" cx="657" cy="-39" rx="27" ry="18"/>
<text text-anchor="middle" x="657" y="-35.3" font-family="Times New Roman,serif" font-size="14.00">o</text>
</g>
<!-- h&#45;&#45;o -->
<g id="edge16" class="edge">
<title>h&#45;&#45;o</title>
<path fill="none" stroke="black" d="M410.88,-22.2C422.42,-18.23 436.75,-13.98 450,-12 515.81,-2.14 593.76,-20.52 632.17,-31.55"/>
</g>
<!-- l -->
<g id="node13" class="node">
<title>l</title>
<ellipse fill="none" stroke="black" cx="477" cy="-39" rx="27" ry="18"/>
<text text-anchor="middle" x="477" y="-35.3" font-family="Times New Roman,serif" font-size="14.00">l</text>
</g>
<!-- h&#45;&#45;l -->
<g id="edge17" class="edge">
<title>h&#45;&#45;l</title>
<path fill="none" stroke="black" d="M413.93,-33.36C425.28,-34.39 438.58,-35.6 449.95,-36.63"/>
</g>
<!-- i&#45;&#45;j -->
<g id="edge18" class="edge">
<title>i&#45;&#45;j</title>
<path fill="none" stroke="black" d="M408.85,-95.9C422.88,-103.23 441.3,-112.86 455.29,-120.18"/>
</g>
<!-- i&#45;&#45;l -->
<g id="edge19" class="edge">
<title>i&#45;&#45;l</title>
<path fill="none" stroke="black" d="M408.85,-74.1C422.88,-66.77 441.3,-57.14 455.29,-49.82"/>
</g>
<!-- m -->
<g id="node14" class="node">
<title>m</title>
<ellipse fill="none" stroke="black" cx="567" cy="-85" rx="27" ry="18"/>
<text text-anchor="middle" x="567" y="-81.3" font-family="Times New Roman,serif" font-size="14.00">m</text>
</g>
<!-- i&#45;&#45;m -->
<g id="edge20" class="edge">
<title>i&#45;&#45;m</title>
<path fill="none" stroke="black" d="M414.26,-85C448.02,-85 506.26,-85 539.92,-85"/>
</g>
<!-- j&#45;&#45;k -->
<g id="edge21" class="edge">
<title>j&#45;&#45;k</title>
<path fill="none" stroke="black" d="M498.85,-141.9C512.88,-149.23 531.3,-158.86 545.29,-166.18"/>
</g>
<!-- j&#45;&#45;m -->
<g id="edge22" class="edge">
<title>j&#45;&#45;m</title>
<path fill="none" stroke="black" d="M498.85,-120.1C512.88,-112.77 531.3,-103.14 545.29,-95.82"/>
</g>
<!-- n -->
<g id="node15" class="node">
<title>n</title>
<ellipse fill="none" stroke="black" cx="657" cy="-131" rx="27" ry="18"/>
<text text-anchor="middle" x="657" y="-127.3" font-family="Times New Roman,serif" font-size="14.00">n</text>
</g>
<!-- j&#45;&#45;n -->
<g id="edge23" class="edge">
<title>j&#45;&#45;n</title>
<path fill="none" stroke="black" d="M504.26,-131C538.02,-131 596.26,-131 629.92,-131"/>
</g>
<!-- k&#45;&#45;n -->
<g id="edge24" class="edge">
<title>k&#45;&#45;n</title>
<path fill="none" stroke="black" d="M588.85,-166.1C602.88,-158.77 621.3,-149.14 635.29,-141.82"/>
</g>
<!-- r -->
<g id="node16" class="node">
<title>r</title>
<ellipse fill="none" stroke="black" cx="927" cy="-154" rx="27" ry="18"/>
<text text-anchor="middle" x="927" y="-150.3" font-family="Times New Roman,serif" font-size="14.00">r</text>
</g>
<!-- k&#45;&#45;r -->
<g id="edge25" class="edge">
<title>k&#45;&#45;r</title>
<path fill="none" stroke="black" d="M594.16,-175.84C645.79,-173.48 764.44,-167.67 864,-160 875.86,-159.09 888.98,-157.85 900.08,-156.74"/>
</g>
<!-- p -->
<g id="node17" class="node">
<title>p</title>
<ellipse fill="none" stroke="black" cx="747" cy="-64" rx="27" ry="18"/>
<text text-anchor="middle" x="747" y="-60.3" font-family="Times New Roman,serif" font-size="14.00">p</text>
</g>
<!-- o&#45;&#45;p -->
<g id="edge33" class="edge">
<title>o&#45;&#45;p</title>
<path fill="none" stroke="black" d="M682.05,-45.83C694.46,-49.36 709.57,-53.65 721.98,-57.18"/>
</g>
<!-- s -->
<g id="node19" class="node">
<title>s</title>
<ellipse fill="none" stroke="black" cx="837" cy="-18" rx="27" ry="18"/>
<text text-anchor="middle" x="837" y="-14.3" font-family="Times New Roman,serif" font-size="14.00">s</text>
</g>
<!-- o&#45;&#45;s -->
<g id="edge34" class="edge">
<title>o&#45;&#45;s</title>
<path fill="none" stroke="black" d="M683.88,-35.95C717.73,-31.95 776.66,-25 810.37,-21.02"/>
</g>
<!-- l&#45;&#45;o -->
<g id="edge26" class="edge">
<title>l&#45;&#45;o</title>
<path fill="none" stroke="black" d="M504.26,-39C538.02,-39 596.26,-39 629.92,-39"/>
</g>
<!-- l&#45;&#45;m -->
<g id="edge27" class="edge">
<title>l&#45;&#45;m</title>
<path fill="none" stroke="black" d="M498.85,-49.9C512.88,-57.23 531.3,-66.86 545.29,-74.18"/>
</g>
<!-- m&#45;&#45;o -->
<g id="edge28" class="edge">
<title>m&#45;&#45;o</title>
<path fill="none" stroke="black" d="M588.85,-74.1C602.88,-66.77 621.3,-57.14 635.29,-49.82"/>
</g>
<!-- m&#45;&#45;n -->
<g id="edge29" class="edge">
<title>m&#45;&#45;n</title>
<path fill="none" stroke="black" d="M588.85,-95.9C602.88,-103.23 621.3,-112.86 635.29,-120.18"/>
</g>
<!-- m&#45;&#45;p -->
<g id="edge30" class="edge">
<title>m&#45;&#45;p</title>
<path fill="none" stroke="black" d="M593.88,-81.95C627.73,-77.95 686.66,-71 720.37,-67.02"/>
</g>
<!-- n&#45;&#45;r -->
<g id="edge31" class="edge">
<title>n&#45;&#45;r</title>
<path fill="none" stroke="black" d="M684.18,-133.25C735.55,-137.66 848.97,-147.39 900.1,-151.78"/>
</g>
<!-- q -->
<g id="node18" class="node">
<title>q</title>
<ellipse fill="none" stroke="black" cx="837" cy="-110" rx="27" ry="18"/>
<text text-anchor="middle" x="837" y="-106.3" font-family="Times New Roman,serif" font-size="14.00">q</text>
</g>
<!-- n&#45;&#45;q -->
<g id="edge32" class="edge">
<title>n&#45;&#45;q</title>
<path fill="none" stroke="black" d="M683.88,-127.95C717.73,-123.95 776.66,-117 810.37,-113.02"/>
</g>
<!-- t -->
<g id="node20" class="node">
<title>t</title>
<ellipse fill="none" stroke="black" cx="1017" cy="-83" rx="27" ry="18"/>
<text text-anchor="middle" x="1017" y="-79.3" font-family="Times New Roman,serif" font-size="14.00">t</text>
</g>
<!-- r&#45;&#45;t -->
<g id="edge40" class="edge">
<title>r&#45;&#45;t</title>
<path fill="none" stroke="black" d="M944.97,-140.31C960.55,-127.74 983.52,-109.21 999.08,-96.65"/>
</g>
<!-- p&#45;&#45;q -->
<g id="edge35" class="edge">
<title>p&#45;&#45;q</title>
<path fill="none" stroke="black" d="M768.85,-74.9C782.88,-82.23 801.3,-91.86 815.29,-99.18"/>
</g>
<!-- p&#45;&#45;s -->
<g id="edge36" class="edge">
<title>p&#45;&#45;s</title>
<path fill="none" stroke="black" d="M768.85,-53.1C782.88,-45.77 801.3,-36.14 815.29,-28.82"/>
</g>
<!-- p&#45;&#45;t -->
<g id="edge37" class="edge">
<title>p&#45;&#45;t</title>
<path fill="none" stroke="black" d="M774.18,-65.86C825.55,-69.5 938.97,-77.54 990.1,-81.16"/>
</g>
<!-- q&#45;&#45;r -->
<g id="edge38" class="edge">
<title>q&#45;&#45;r</title>
<path fill="none" stroke="black" d="M859.3,-120.65C873.14,-127.57 891.1,-136.55 904.89,-143.45"/>
</g>
<!-- q&#45;&#45;t -->
<g id="edge39" class="edge">
<title>q&#45;&#45;t</title>
<path fill="none" stroke="black" d="M863.5,-106.13C897.34,-101 956.73,-91.99 990.54,-86.86"/>
</g>
<!-- z -->
<g id="node21" class="node">
<title>z</title>
<ellipse fill="none" stroke="black" cx="1107" cy="-45" rx="27" ry="18"/>
<text text-anchor="middle" x="1107" y="-41.3" font-family="Times New Roman,serif" font-size="14.00">z</text>
</g>
<!-- s&#45;&#45;z -->
<g id="edge41" class="edge">
<title>s&#45;&#45;z</title>
<path fill="none" stroke="black" d="M864.18,-20.64C915.55,-25.81 1028.97,-37.24 1080.1,-42.39"/>
</g>
<!-- t&#45;&#45;z -->
<g id="edge42" class="edge">
<title>t&#45;&#45;z</title>
<path fill="none" stroke="black" d="M1040.21,-73.41C1053.55,-67.65 1070.46,-60.35 1083.8,-54.59"/>
</g>
</g>
</svg>
